<?xml version="1.0" encoding="UTF-8"?>
<!DOCTYPE svg PUBLIC "-//W3C//DTD SVG 1.1//EN" "http://www.w3.org/Graphics/SVG/1.1/DTD/svg11.dtd">
<svg xmlns="http://www.w3.org/2000/svg" version="1.1" width="512px" height="512px" style="shape-rendering:geometricPrecision; text-rendering:geometricPrecision; image-rendering:optimizeQuality; fill-rule:evenodd; clip-rule:evenodd" xmlns:xlink="http://www.w3.org/1999/xlink">
<g><path style="opacity:0.95" fill="#06443a" d="M 492.5,335.5 C 489.459,342.28 486.792,349.28 484.5,356.5C 445.953,436.984 382.619,485.484 294.5,502C 200.806,513.447 123.306,483.614 62,412.5C 6.51783,338.939 -6.8155,258.273 22,170.5C 25.8836,159.566 30.7169,149.066 36.5,139C 35.944,138.617 35.6107,138.117 35.5,137.5C 38.4413,138.82 41.4413,140.153 44.5,141.5C 45.2975,141.957 45.6309,142.624 45.5,143.5C 10.5073,213.588 8.67395,284.588 40,356.5C 74.2667,425.928 129.1,469.594 204.5,487.5C 227.736,493.263 251.403,494.93 275.5,492.5C 283.07,493.409 290.737,492.909 298.5,491C 309.26,489.23 319.594,486.396 329.5,482.5C 360.051,471.73 387.717,456.063 412.5,435.5C 413.239,435.631 413.906,435.464 414.5,435C 421.428,428.577 427.762,421.744 433.5,414.5C 455.237,389.369 471.57,361.036 482.5,329.5C 486.151,320.411 488.818,310.911 490.5,301C 490.472,299.93 490.139,299.097 489.5,298.5C 489.5,297.833 489.833,297.5 490.5,297.5C 492.962,290.28 493.629,282.947 492.5,275.5C 492.517,273.435 492.85,271.435 493.5,269.5C 494.166,264.177 494.499,258.677 494.5,253C 494.729,243.728 494.063,235.895 492.5,229.5C 484.845,169.182 458.511,118.849 413.5,78.5C 396.64,62.7189 377.64,49.8855 356.5,40C 349.339,36.6695 342.006,33.8362 334.5,31.5C 245.355,3.29322 165.355,19.4599 94.5,80C 86.567,87.4277 79.2336,95.261 72.5,103.5C 67.532,105.964 62.1987,107.297 56.5,107.5C 94.4733,57.3153 144.473,25.482 206.5,12C 300.974,-3.84389 380.474,23.3228 445,93.5C 502.877,165.732 518.71,246.399 492.5,335.5 Z"/></g>
<g><path style="opacity:1" fill="#107261" d="M 334.5,31.5 C 334.5,33.5 334.5,35.5 334.5,37.5C 332.167,37.5 329.833,37.5 327.5,37.5C 327.5,41.1667 327.5,44.8333 327.5,48.5C 324.833,48.8333 322.167,49.1667 319.5,49.5C 319.5,53.5 319.5,57.5 319.5,61.5C 316.833,61.5 314.167,61.5 311.5,61.5C 311.824,65.5546 311.491,69.5546 310.5,73.5C 308.253,74.3742 305.92,74.7076 303.5,74.5C 303.5,78.5 303.5,82.5 303.5,86.5C 301.5,86.5 299.5,86.5 297.5,86.5C 297.826,90.8839 297.492,95.2172 296.5,99.5C 293.916,100.393 291.249,100.726 288.5,100.5C 288.5,105.167 288.5,109.833 288.5,114.5C 285.833,114.833 283.167,115.167 280.5,115.5C 280.5,120.167 280.5,124.833 280.5,129.5C 278.08,129.292 275.747,129.626 273.5,130.5C 272.506,135.456 272.173,140.456 272.5,145.5C 270.5,145.5 268.5,145.5 266.5,145.5C 266.5,150.833 266.5,156.167 266.5,161.5C 263.518,161.963 260.518,162.296 257.5,162.5C 257.5,163.5 257.5,164.5 257.5,165.5C 204.825,118.053 143.158,97.3861 72.5,103.5C 79.2336,95.261 86.567,87.4277 94.5,80C 165.355,19.4599 245.355,3.29322 334.5,31.5 Z"/></g>
<g><path style="opacity:1" fill="#117565" d="M 334.5,31.5 C 342.006,33.8362 349.339,36.6695 356.5,40C 377.64,49.8855 396.64,62.7189 413.5,78.5C 412.517,82.2984 412.183,86.2984 412.5,90.5C 409.833,90.8333 407.167,91.1667 404.5,91.5C 404.5,95.8333 404.5,100.167 404.5,104.5C 401.833,104.5 399.167,104.5 396.5,104.5C 396.5,108.833 396.5,113.167 396.5,117.5C 394.194,117.993 391.861,118.326 389.5,118.5C 389.5,123.167 389.5,127.833 389.5,132.5C 387.08,132.292 384.747,132.626 382.5,133.5C 381.507,138.12 381.173,142.786 381.5,147.5C 378.833,147.5 376.167,147.5 373.5,147.5C 373.828,152.875 373.495,158.208 372.5,163.5C 370.253,164.374 367.92,164.708 365.5,164.5C 365.5,169.833 365.5,175.167 365.5,180.5C 363.409,180.318 361.409,180.652 359.5,181.5C 358.504,187.463 358.171,193.463 358.5,199.5C 355.833,199.5 353.167,199.5 350.5,199.5C 350.5,206.167 350.5,212.833 350.5,219.5C 347.833,219.5 345.167,219.5 342.5,219.5C 342.5,227.167 342.5,234.833 342.5,242.5C 340.08,242.292 337.747,242.626 335.5,243.5C 334.502,251.472 334.169,259.472 334.5,267.5C 332.167,267.5 329.833,267.5 327.5,267.5C 327.5,277.5 327.5,287.5 327.5,297.5C 324.833,297.833 322.167,298.167 319.5,298.5C 315.781,246.072 295.115,201.739 257.5,165.5C 257.5,164.5 257.5,163.5 257.5,162.5C 260.518,162.296 263.518,161.963 266.5,161.5C 266.5,156.167 266.5,150.833 266.5,145.5C 268.5,145.5 270.5,145.5 272.5,145.5C 272.173,140.456 272.506,135.456 273.5,130.5C 275.747,129.626 278.08,129.292 280.5,129.5C 280.5,124.833 280.5,120.167 280.5,115.5C 283.167,115.167 285.833,114.833 288.5,114.5C 288.5,109.833 288.5,105.167 288.5,100.5C 291.249,100.726 293.916,100.393 296.5,99.5C 297.492,95.2172 297.826,90.8839 297.5,86.5C 299.5,86.5 301.5,86.5 303.5,86.5C 303.5,82.5 303.5,78.5 303.5,74.5C 305.92,74.7076 308.253,74.3742 310.5,73.5C 311.491,69.5546 311.824,65.5546 311.5,61.5C 314.167,61.5 316.833,61.5 319.5,61.5C 319.5,57.5 319.5,53.5 319.5,49.5C 322.167,49.1667 324.833,48.8333 327.5,48.5C 327.5,44.8333 327.5,41.1667 327.5,37.5C 329.833,37.5 332.167,37.5 334.5,37.5C 334.5,35.5 334.5,33.5 334.5,31.5 Z"/></g>
<g><path style="opacity:1" fill="#127766" d="M 413.5,78.5 C 458.511,118.849 484.845,169.182 492.5,229.5C 493.333,242.815 493.666,256.149 493.5,269.5C 492.85,271.435 492.517,273.435 492.5,275.5C 491.927,282.842 491.261,290.176 490.5,297.5C 489.833,297.5 489.5,297.833 489.5,298.5C 487.639,308.942 485.306,319.276 482.5,329.5C 471.57,361.036 455.237,389.369 433.5,414.5C 426.167,421.167 419.167,428.167 412.5,435.5C 387.717,456.063 360.051,471.73 329.5,482.5C 323.546,484.04 317.546,485.373 311.5,486.5C 311.832,475.48 311.499,464.48 310.5,453.5C 308.253,452.626 305.92,452.292 303.5,452.5C 303.5,440.833 303.5,429.167 303.5,417.5C 305.92,417.708 308.253,417.374 310.5,416.5C 311.5,397.845 311.833,379.179 311.5,360.5C 317.251,340.244 319.917,319.577 319.5,298.5C 322.167,298.167 324.833,297.833 327.5,297.5C 327.5,287.5 327.5,277.5 327.5,267.5C 329.833,267.5 332.167,267.5 334.5,267.5C 334.169,259.472 334.502,251.472 335.5,243.5C 337.747,242.626 340.08,242.292 342.5,242.5C 342.5,234.833 342.5,227.167 342.5,219.5C 345.167,219.5 347.833,219.5 350.5,219.5C 350.5,212.833 350.5,206.167 350.5,199.5C 353.167,199.5 355.833,199.5 358.5,199.5C 358.171,193.463 358.504,187.463 359.5,181.5C 361.409,180.652 363.409,180.318 365.5,180.5C 365.5,175.167 365.5,169.833 365.5,164.5C 367.92,164.708 370.253,164.374 372.5,163.5C 373.495,158.208 373.828,152.875 373.5,147.5C 376.167,147.5 378.833,147.5 381.5,147.5C 381.173,142.786 381.507,138.12 382.5,133.5C 384.747,132.626 387.08,132.292 389.5,132.5C 389.5,127.833 389.5,123.167 389.5,118.5C 391.861,118.326 394.194,117.993 396.5,117.5C 396.5,113.167 396.5,108.833 396.5,104.5C 399.167,104.5 401.833,104.5 404.5,104.5C 404.5,100.167 404.5,95.8333 404.5,91.5C 407.167,91.1667 409.833,90.8333 412.5,90.5C 412.183,86.2984 412.517,82.2984 413.5,78.5 Z"/></g>
<g><path style="opacity:0.998" fill="#11584b" d="M 257.5,165.5 C 295.115,201.739 315.781,246.072 319.5,298.5C 319.917,319.577 317.251,340.244 311.5,360.5C 308.781,367.141 305.947,373.808 303,380.5C 300,383.167 297,383.167 294,380.5C 275.399,295.134 229.899,228.467 157.5,180.5C 217.809,239.275 254.142,311.108 266.5,396C 266.297,398.406 265.297,400.406 263.5,402C 259.131,402.425 254.797,402.092 250.5,401C 235.42,398.138 220.42,394.972 205.5,391.5C 165.414,381.88 133.581,360.213 110,326.5C 102.51,313.701 97.1768,300.034 94,285.5C 90.209,262.963 87.5423,240.297 86,217.5C 83.9554,194.944 76.2888,174.611 63,156.5C 58.2181,150.548 52.3848,146.215 45.5,143.5C 45.6309,142.624 45.2975,141.957 44.5,141.5C 41.4413,140.153 38.4413,138.82 35.5,137.5C 27.2016,135.643 18.8683,135.143 10.5,136C 4.41261,132.834 4.07928,129.167 9.5,125C 24.4017,117.089 40.0684,111.255 56.5,107.5C 62.1987,107.297 67.532,105.964 72.5,103.5C 143.158,97.3861 204.825,118.053 257.5,165.5 Z"/></g>
<g><path style="opacity:1" fill="#fdfefe" d="M 84.5,107.5 C 161.879,105.433 225.379,133.766 275,192.5C 310.983,239.774 322.316,292.441 309,350.5C 306.383,359.853 302.883,368.853 298.5,377.5C 274.789,274.65 215.456,200.65 120.5,155.5C 119.167,156.167 119.167,156.833 120.5,157.5C 189.263,208.949 234.096,276.616 255,360.5C 257.586,372.435 259.752,384.435 261.5,396.5C 260.667,396.833 259.833,397.167 259,397.5C 228.139,392.994 198.306,384.827 169.5,373C 126.188,351.009 101.688,315.842 96,267.5C 94.632,241.888 91.2986,216.555 86,191.5C 80.4566,168.649 67.9566,150.816 48.5,138C 37.2446,131.572 25.2446,128.906 12.5,130C 35.0489,117.537 59.0489,110.037 84.5,107.5 Z"/></g>
<g><path style="opacity:1" fill="#107161" d="M 45.5,143.5 C 52.3848,146.215 58.2181,150.548 63,156.5C 76.2888,174.611 83.9554,194.944 86,217.5C 87.5423,240.297 90.209,262.963 94,285.5C 97.1768,300.034 102.51,313.701 110,326.5C 133.581,360.213 165.414,381.88 205.5,391.5C 204.502,423.329 204.168,455.329 204.5,487.5C 129.1,469.594 74.2667,425.928 40,356.5C 8.67395,284.588 10.5073,213.588 45.5,143.5 Z"/></g>
<g><path style="opacity:1" fill="#12584c" d="M 426.5,223.5 C 429.564,223.144 432.231,223.977 434.5,226C 460.266,252.962 471.099,285.128 467,322.5C 461.947,367.487 439.114,399.654 398.5,419C 382.288,425.372 365.621,427.372 348.5,425C 346.556,422.847 346.056,420.347 347,417.5C 379.459,398.541 403.292,371.874 418.5,337.5C 400.507,364.304 377.174,386.137 348.5,403C 343.728,405.72 338.728,407.887 333.5,409.5C 331.971,409.471 330.804,408.804 330,407.5C 326.378,388.99 325.044,370.323 326,351.5C 330.199,326.659 343.032,307.826 364.5,295C 377.167,289 389.833,283 402.5,277C 414.545,271.288 422.712,262.122 427,249.5C 427.667,244.5 427.667,239.5 427,234.5C 423.948,230.896 423.782,227.229 426.5,223.5 Z"/></g>
<g><path style="opacity:1" fill="#fdfdfd" d="M 429.5,228.5 C 455.223,253.669 466.057,284.335 462,320.5C 457.638,365.162 435.138,396.662 394.5,415C 380.577,420.199 366.244,422.032 351.5,420.5C 400.83,390.001 428.33,346.668 434,290.5C 416.337,341.829 383.337,379.829 335,404.5C 331.318,387.356 329.984,370.023 331,352.5C 334.867,328.912 347.034,311.078 367.5,299C 380.833,292.667 394.167,286.333 407.5,280C 419.858,272.795 428.025,262.295 432,248.5C 433.195,241.513 432.361,234.847 429.5,228.5 Z"/></g>
<g><path style="opacity:1" fill="#117564" d="M 311.5,360.5 C 311.833,379.179 311.5,397.845 310.5,416.5C 308.253,417.374 305.92,417.708 303.5,417.5C 303.5,429.167 303.5,440.833 303.5,452.5C 305.92,452.292 308.253,452.626 310.5,453.5C 311.499,464.48 311.832,475.48 311.5,486.5C 299.86,489.88 287.86,491.88 275.5,492.5C 251.403,494.93 227.736,493.263 204.5,487.5C 204.168,455.329 204.502,423.329 205.5,391.5C 220.42,394.972 235.42,398.138 250.5,401C 254.797,402.092 259.131,402.425 263.5,402C 265.297,400.406 266.297,398.406 266.5,396C 254.142,311.108 217.809,239.275 157.5,180.5C 229.899,228.467 275.399,295.134 294,380.5C 297,383.167 300,383.167 303,380.5C 305.947,373.808 308.781,367.141 311.5,360.5 Z"/></g>
<g><path style="opacity:1" fill="#03110e" d="M 493.5,269.5 C 493.666,256.149 493.333,242.815 492.5,229.5C 494.063,235.895 494.729,243.728 494.5,253C 494.499,258.677 494.166,264.177 493.5,269.5 Z"/></g>
<g><path style="opacity:1" fill="#0d221e" d="M 492.5,275.5 C 493.629,282.947 492.962,290.28 490.5,297.5C 491.261,290.176 491.927,282.842 492.5,275.5 Z"/></g>
<g><path style="opacity:1" fill="#0e1f1c" d="M 489.5,298.5 C 490.139,299.097 490.472,299.93 490.5,301C 488.818,310.911 486.151,320.411 482.5,329.5C 485.306,319.276 487.639,308.942 489.5,298.5 Z"/></g>
<g><path style="opacity:0.004" fill="#07130c" d="M 492.5,335.5 C 492.5,341.833 492.5,348.167 492.5,354.5C 489.975,355.64 487.308,356.307 484.5,356.5C 486.792,349.28 489.459,342.28 492.5,335.5 Z"/></g>
<g><path style="opacity:1" fill="#0e201d" d="M 433.5,414.5 C 427.762,421.744 421.428,428.577 414.5,435C 413.906,435.464 413.239,435.631 412.5,435.5C 419.167,428.167 426.167,421.167 433.5,414.5 Z"/></g>
<g><path style="opacity:1" fill="#0e231f" d="M 329.5,482.5 C 319.594,486.396 309.26,489.23 298.5,491C 290.737,492.909 283.07,493.409 275.5,492.5C 287.86,491.88 299.86,489.88 311.5,486.5C 317.546,485.373 323.546,484.04 329.5,482.5 Z"/></g>
</svg>
